<svg width="18" height="24" viewBox="0 0 18 24" fill="none" xmlns="http://www.w3.org/2000/svg">
<path d="M17.182 8.8879C17.182 4.58169 13.5189 1.09082 9.00018 1.09082C4.48148 1.09082 0.818359 4.58169 0.818359 8.8879V9.35754C0.818359 11.0805 1.38328 12.7604 2.43415 14.1625L8.98402 22.9011C8.99194 22.9116 9.00842 22.9116 9.01634 22.9011L15.5662 14.1625C16.6171 12.7604 17.182 11.0805 17.182 9.35754V8.8879Z" stroke="#2D383F" stroke-linecap="round" stroke-linejoin="round"/>
<path d="M7.40098 5.76976C8.41157 5.30597 9.58879 5.30597 10.5994 5.76976C11.61 6.23355 12.344 7.11065 12.5935 8.15278C12.8431 9.19491 12.5812 10.2886 11.8818 11.1244C11.1825 11.9601 10.1219 12.4468 9.00018 12.4468C7.8785 12.4468 6.81787 11.9601 6.11852 11.1244C5.41916 10.2886 5.15721 9.19491 5.40681 8.15278C5.6564 7.11065 6.39038 6.23355 7.40098 5.76976Z" stroke="#2D383F" stroke-linecap="round" stroke-linejoin="round"/>
</svg>
