<svg width="30" height="40" viewBox="0 0 30 40" fill="none" xmlns="http://www.w3.org/2000/svg">
<path fill-rule="evenodd" clip-rule="evenodd" d="M14.9998 0.90918C22.9075 0.90918 29.318 7.0182 29.318 14.5541V15.3759C29.318 18.3911 28.3294 21.331 26.4904 23.7846L15.0281 39.0771C15.0142 39.0956 14.9854 39.0956 14.9715 39.0771L3.50928 23.7846C1.67025 21.331 0.681641 18.3911 0.681641 15.3759V14.5541C0.681641 7.0182 7.09211 0.90918 14.9998 0.90918ZM12.4556 10.0046C10.8479 10.7373 9.68018 12.1228 9.28309 13.769C8.88601 15.4152 9.30276 17.1429 10.4154 18.4631C11.528 19.7832 13.2153 20.5521 14.9998 20.5521C16.7843 20.5521 18.4717 19.7832 19.5843 18.4631C20.6969 17.1429 21.1136 15.4152 20.7165 13.769C20.3195 12.1228 19.1518 10.7373 17.544 10.0046C15.9362 9.27199 14.0634 9.27199 12.4556 10.0046Z" fill="#0266C1"/>
</svg>
